<?xml version="1.0" standalone="no"?>
<!DOCTYPE svg PUBLIC "-//W3C//DTD SVG 20010904//EN"
 "http://www.w3.org/TR/2001/REC-SVG-20010904/DTD/svg10.dtd">
<svg version="1.0" xmlns="http://www.w3.org/2000/svg"
 width="704.000000pt" height="704.000000pt" viewBox="0 0 704.000000 704.000000"
 preserveAspectRatio="xMidYMid meet">
<metadata>
Created by potrace 1.14, written by Peter Selinger 2001-2017
</metadata>
<g transform="translate(0.000000,704.000000) scale(0.100000,-0.100000)"
fill="#000000" stroke="none">
<path d="M5475 6164 c-350 -69 -616 -387 -600 -719 5 -114 37 -172 125 -223
37 -22 56 -26 115 -26 78 1 123 17 174 60 90 75 108 237 39 341 -26 38 -124
91 -175 95 -38 3 -38 4 -16 49 45 93 212 216 318 234 164 29 337 -19 440 -122
169 -169 234 -448 168 -719 -36 -148 -123 -316 -255 -492 -132 -175 -194 -247
-538 -622 -80 -87 -177 -196 -320 -359 -30 -34 -60 -72 -67 -84 -17 -30 -17
-167 0 -168 50 -4 1521 -3 1527 1 8 5 28 110 44 225 4 22 8 51 11 65 2 14 7
45 10 70 3 25 7 61 10 80 3 19 7 51 10 70 7 51 16 121 20 150 2 14 7 48 10 76
l7 50 -82 -2 c-45 -2 -83 -4 -85 -6 -2 -2 -6 -23 -10 -48 -10 -64 -11 -72 -19
-105 -40 -168 -58 -220 -79 -228 -7 -3 -32 -4 -55 -4 -23 1 -42 -1 -42 -4 0
-3 -202 -6 -450 -7 -392 -1 -487 3 -441 20 5 2 78 68 162 148 83 80 164 156
179 170 116 109 182 169 211 195 78 70 216 192 243 215 110 94 296 295 296
319 0 6 4 11 8 11 5 0 16 15 25 33 10 17 30 55 46 83 25 46 63 140 78 199 3
11 7 76 9 145 4 144 -16 251 -67 360 -107 229 -322 405 -564 460 -28 7 -59 14
-70 17 -51 12 -284 10 -350 -3z"/>
<path d="M1191 4981 c-31 -24 -51 -84 -53 -156 -3 -95 -1 -95 178 -100 190 -5
286 -13 332 -28 48 -16 48 -26 1 -232 -11 -49 -25 -108 -30 -130 -5 -22 -11
-49 -14 -60 -4 -25 -122 -510 -132 -545 -4 -14 -8 -29 -8 -35 -1 -5 -7 -30
-14 -55 -7 -25 -15 -54 -17 -65 -4 -22 -8 -39 -25 -105 -6 -25 -12 -52 -14
-60 -2 -8 -4 -17 -6 -20 -1 -3 -3 -9 -4 -15 -1 -5 -7 -30 -14 -55 -7 -25 -15
-54 -17 -65 -2 -11 -15 -65 -29 -120 -14 -55 -28 -109 -30 -120 -3 -11 -14
-56 -25 -100 -26 -97 -30 -113 -36 -145 -3 -14 -8 -34 -11 -45 -4 -11 -8 -24
-9 -30 -1 -5 -34 -136 -74 -290 -39 -154 -73 -287 -75 -295 -2 -8 -13 -53 -25
-100 -12 -47 -24 -92 -26 -100 -2 -8 -13 -51 -24 -95 -12 -44 -23 -87 -24 -95
-4 -21 -16 -67 -31 -120 -7 -25 -23 -83 -35 -130 -12 -47 -25 -92 -28 -100 -3
-8 -5 -18 -4 -22 3 -17 -58 -67 -94 -77 -46 -12 -169 -21 -354 -26 -74 -1
-142 -6 -151 -10 -14 -5 -51 -80 -50 -100 0 -2 -7 -27 -15 -55 -16 -53 -6 -89
26 -91 8 -1 346 -3 750 -5 404 -2 782 -5 840 -7 l105 -2 24 44 c13 24 29 72
36 107 12 63 10 75 -22 114 -2 2 -50 5 -106 7 -235 5 -351 12 -377 23 -35 14
-50 47 -38 80 9 23 46 174 53 215 2 11 4 21 5 23 2 1 3 5 4 10 16 70 29 122
36 142 5 14 11 39 13 55 3 17 12 55 21 85 8 30 17 66 20 80 3 14 21 90 41 170
20 80 38 152 40 160 2 8 18 71 35 140 18 69 34 136 36 150 3 14 9 39 14 55 5
17 12 41 15 55 12 60 41 166 47 176 5 7 116 10 360 8 414 -3 539 -11 554 -35
3 -5 12 -9 19 -9 26 0 119 -63 167 -114 95 -99 141 -264 115 -406 -3 -14 -8
-43 -12 -65 -3 -22 -11 -58 -16 -80 -5 -22 -12 -50 -15 -63 -2 -12 -20 -82
-39 -155 -34 -130 -56 -228 -71 -317 -17 -94 -8 -299 14 -334 3 -6 7 -17 8
-24 2 -13 43 -101 55 -117 82 -111 198 -191 359 -247 148 -51 454 -74 575 -43
70 18 169 65 211 101 16 14 43 38 60 52 61 54 148 178 209 297 34 67 62 128
62 136 0 8 3 30 6 49 7 39 -4 59 -43 80 -27 14 -123 15 -149 0 -17 -9 -45 -65
-77 -154 -28 -77 -111 -206 -166 -260 -64 -61 -119 -86 -208 -93 -57 -5 -78
-2 -124 17 -66 26 -112 75 -122 127 -14 71 -6 507 10 603 2 14 8 63 11 110 4
47 9 101 11 120 2 19 6 70 8 113 3 42 7 80 8 85 5 9 1 88 -7 161 -7 63 -57
204 -85 243 -11 15 -20 30 -20 34 0 4 -7 14 -15 23 -8 9 -27 31 -41 49 -25 32
-168 153 -179 152 -8 0 -75 44 -75 50 0 3 33 15 73 28 170 54 548 249 683 353
118 90 248 242 317 370 101 185 122 389 60 584 -16 51 -95 216 -113 238 -6 7
-21 26 -33 43 -53 74 -176 184 -205 184 -7 0 -12 4 -12 9 0 5 -8 11 -17 15
-10 3 -41 18 -69 34 -28 16 -64 34 -80 40 -16 6 -59 22 -96 36 -38 14 -68 22
-68 19 0 -3 -7 0 -15 7 -8 7 -15 10 -15 7 0 -3 -21 0 -47 8 -183 53 -265 57
-1420 59 -811 2 -914 0 -932 -13z m1859 -265 c253 -9 439 -67 537 -165 46 -47
100 -145 111 -202 9 -45 8 -210 -2 -283 -25 -194 -119 -451 -211 -581 -57 -79
-186 -204 -212 -205 -7 0 -13 -4 -13 -8 0 -4 -25 -20 -55 -36 -60 -30 -175
-77 -175 -71 0 2 -18 -2 -40 -10 -22 -8 -40 -12 -40 -10 0 2 -14 0 -31 -5 -28
-8 -79 -16 -174 -26 -157 -16 -846 -26 -860 -12 -3 3 6 55 21 114 14 60 28
116 29 124 2 8 4 15 5 15 1 0 3 9 5 20 3 11 21 83 40 160 20 77 38 148 41 158
2 9 6 26 9 37 3 11 7 28 9 38 2 9 16 64 31 122 34 133 50 197 60 240 4 14 101
393 126 490 7 25 16 50 20 56 12 15 85 36 149 41 30 3 56 6 57 7 4 4 415 -2
563 -8z"/>
</g>
</svg>
